<mxfile host="app.diagrams.net" agent="Mozilla/5.0 (Macintosh; Intel Mac OS X 10_15_7) AppleWebKit/537.36 (KHTML, like Gecko) Chrome/138.0.0.0 Safari/537.36" version="28.1.0">
  <diagram name="Page-1" id="3NpRXopWl6TGATURqXAJ">
    <mxGraphModel dx="1357" dy="873" grid="1" gridSize="10" guides="1" tooltips="1" connect="1" arrows="1" fold="1" page="1" pageScale="1" pageWidth="827" pageHeight="1169" math="0" shadow="0">
      <root>
        <mxCell id="0" />
        <mxCell id="1" parent="0" />
        <mxCell id="_3AFg_UZ2i1J-KTGeOXj-1" value="&#xa;  &#xa;    &#xa;      &#xa;        &#xa;        &#xa;        &#xa;        &#xa;        &#xa;          &#xa;        &#xa;        &#xa;        &#xa;        &#xa;          &#xa;        &#xa;        &#xa;        &#xa;        &#xa;          &#xa;        &#xa;        &#xa;        &#xa;        &#xa;          &#xa;        &#xa;        &#xa;        &#xa;        &#xa;          &#xa;        &#xa;        &#xa;        &#xa;        &#xa;          &#xa;        &#xa;        &#xa;        &#xa;        &#xa;          &#xa;        &#xa;        &#xa;        &#xa;        &#xa;          &#xa;        &#xa;        &#xa;        &#xa;        &#xa;          &#xa;        &#xa;        &#xa;        &#xa;        &#xa;          &#xa;        &#xa;        &#xa;        &#xa;        &#xa;          &#xa;        &#xa;        &#xa;        &#xa;        &#xa;          &#xa;        &#xa;        &#xa;        &#xa;        &#xa;          &#xa;        &#xa;        &#xa;        &#xa;        &#xa;          &#xa;        &#xa;        &#xa;        &#xa;        &#xa;          &#xa;        &#xa;        &#xa;        &#xa;        &#xa;          &#xa;        &#xa;        &#xa;        &#xa;        &#xa;          &#xa;        &#xa;        &#xa;        &#xa;        &#xa;          &#xa;        &#xa;        &#xa;        &#xa;        &#xa;          &#xa;        &#xa;        &#xa;        &#xa;          &#xa;        &#xa;        &#xa;        &#xa;          &#xa;        &#xa;        &#xa;        &#xa;          &#xa;        &#xa;        &#xa;        &#xa;          &#xa;        &#xa;        &#xa;        &#xa;          &#xa;            &#xa;              &#xa;              &#xa;            &#xa;          &#xa;        &#xa;        &#xa;        &#xa;          &#xa;        &#xa;        &#xa;        &#xa;          &#xa;        &#xa;        &#xa;        &#xa;          &#xa;        &#xa;        &#xa;        &#xa;          &#xa;        &#xa;        &#xa;        &#xa;          &#xa;        &#xa;        &#xa;        &#xa;          &#xa;            &#xa;              &#xa;              &#xa;            &#xa;          &#xa;        &#xa;        &#xa;        &#xa;        &#xa;          &#xa;            &#xa;              &#xa;              &#xa;              &#xa;            &#xa;          &#xa;        &#xa;        &#xa;        &#xa;          &#xa;        &#xa;        &#xa;        &#xa;        &#xa;          &#xa;        &#xa;        &#xa;        &#xa;          &#xa;        &#xa;        &#xa;        &#xa;          &#xa;        &#xa;        &#xa;        &#xa;          &#xa;        &#xa;        &#xa;        &#xa;          &#xa;        &#xa;        &#xa;        &#xa;        &#xa;          &#xa;        &#xa;        &#xa;        &#xa;          &#xa;        &#xa;        &#xa;        &#xa;          &#xa;        &#xa;        &#xa;        &#xa;          &#xa;        &#xa;        &#xa;        &#xa;          &#xa;        &#xa;        &#xa;        &#xa;          &#xa;        &#xa;        &#xa;        &#xa;          &#xa;        &#xa;        &#xa;        &#xa;          &#xa;        &#xa;        &#xa;        &#xa;          &#xa;        &#xa;        &#xa;      &#xa;    &#xa;  &#xa;" style="text;whiteSpace=wrap;html=1;" parent="1" vertex="1">
          <mxGeometry width="30" height="3360" as="geometry" />
        </mxCell>
        <mxCell id="V57s2HXl1916Lw7fVu8e-1" value="&#xa;  &#xa;    &#xa;      &#xa;        &#xa;        &#xa;        &#xa;        &#xa;        &#xa;          &#xa;        &#xa;        &#xa;        &#xa;        &#xa;          &#xa;        &#xa;        &#xa;        &#xa;        &#xa;          &#xa;        &#xa;        &#xa;        &#xa;        &#xa;          &#xa;        &#xa;        &#xa;        &#xa;        &#xa;          &#xa;        &#xa;        &#xa;        &#xa;        &#xa;          &#xa;        &#xa;        &#xa;        &#xa;        &#xa;          &#xa;        &#xa;        &#xa;        &#xa;        &#xa;          &#xa;        &#xa;        &#xa;        &#xa;        &#xa;          &#xa;        &#xa;        &#xa;        &#xa;        &#xa;          &#xa;        &#xa;        &#xa;        &#xa;        &#xa;          &#xa;        &#xa;        &#xa;        &#xa;        &#xa;          &#xa;        &#xa;        &#xa;        &#xa;        &#xa;          &#xa;        &#xa;        &#xa;        &#xa;        &#xa;          &#xa;        &#xa;        &#xa;        &#xa;        &#xa;          &#xa;        &#xa;        &#xa;        &#xa;        &#xa;          &#xa;        &#xa;        &#xa;        &#xa;        &#xa;          &#xa;        &#xa;        &#xa;        &#xa;        &#xa;          &#xa;        &#xa;        &#xa;        &#xa;        &#xa;          &#xa;        &#xa;        &#xa;        &#xa;          &#xa;        &#xa;        &#xa;        &#xa;          &#xa;        &#xa;        &#xa;        &#xa;          &#xa;        &#xa;        &#xa;        &#xa;          &#xa;        &#xa;        &#xa;        &#xa;          &#xa;            &#xa;              &#xa;              &#xa;            &#xa;          &#xa;        &#xa;        &#xa;        &#xa;          &#xa;        &#xa;        &#xa;        &#xa;          &#xa;        &#xa;        &#xa;        &#xa;          &#xa;        &#xa;        &#xa;        &#xa;          &#xa;        &#xa;        &#xa;        &#xa;          &#xa;        &#xa;        &#xa;        &#xa;          &#xa;            &#xa;              &#xa;              &#xa;            &#xa;          &#xa;        &#xa;        &#xa;        &#xa;        &#xa;          &#xa;            &#xa;              &#xa;              &#xa;              &#xa;            &#xa;          &#xa;        &#xa;        &#xa;        &#xa;          &#xa;        &#xa;        &#xa;        &#xa;        &#xa;          &#xa;        &#xa;        &#xa;        &#xa;          &#xa;        &#xa;        &#xa;        &#xa;          &#xa;        &#xa;        &#xa;        &#xa;          &#xa;        &#xa;        &#xa;        &#xa;          &#xa;        &#xa;        &#xa;        &#xa;        &#xa;          &#xa;        &#xa;        &#xa;        &#xa;          &#xa;        &#xa;        &#xa;        &#xa;          &#xa;        &#xa;        &#xa;        &#xa;          &#xa;        &#xa;        &#xa;        &#xa;          &#xa;        &#xa;        &#xa;        &#xa;          &#xa;        &#xa;        &#xa;        &#xa;          &#xa;        &#xa;        &#xa;        &#xa;          &#xa;        &#xa;        &#xa;        &#xa;          &#xa;        &#xa;        &#xa;      &#xa;    &#xa;  &#xa;" style="text;whiteSpace=wrap;html=1;" parent="1" vertex="1">
          <mxGeometry width="30" height="3360" as="geometry" />
        </mxCell>
        <mxCell id="V57s2HXl1916Lw7fVu8e-2" value="Oracle to Redis Vector Database Sync using LogMiner (Batch Mode) for RAG System" style="text;fontSize=18;fontStyle=1;fillColor=#e1d5e7;strokeColor=#9673a6;align=center;" parent="1" vertex="1">
          <mxGeometry x="327" y="20" width="1000" height="40" as="geometry" />
        </mxCell>
        <mxCell id="V57s2HXl1916Lw7fVu8e-3" value="Oracle Database&#xa;&#xa;• Source Tables&#xa;• Redo Logs&#xa;• Archive Logs" style="rounded=1;whiteSpace=wrap;html=1;fillColor=#dae8fc;strokeColor=#6c8ebf;fontSize=12;fontStyle=1;" parent="1" vertex="1">
          <mxGeometry x="80" y="120" width="160" height="100" as="geometry" />
        </mxCell>
        <mxCell id="V57s2HXl1916Lw7fVu8e-4" value="Oracle LogMiner&#xa;&#xa;• Start LogMiner Session&#xa;• Add Log Files&#xa;• Query V$LOGMNR_CONTENTS&#xa;• Filter DML Operations" style="rounded=1;whiteSpace=wrap;html=1;fillColor=#fff2cc;strokeColor=#d6b656;fontSize=11;fontStyle=1;" parent="1" vertex="1">
          <mxGeometry x="320" y="120" width="180" height="100" as="geometry" />
        </mxCell>
        <mxCell id="V57s2HXl1916Lw7fVu8e-5" value="Batch Processing Engine&#xa;&#xa;• Scheduler (Cron/Airflow)&#xa;• Batch Size Configuration&#xa;• Error Handling&#xa;• Checkpoint Management" style="rounded=1;whiteSpace=wrap;html=1;fillColor=#f8cecc;strokeColor=#b85450;fontSize=11;fontStyle=1;" parent="1" vertex="1">
          <mxGeometry x="580" y="120" width="180" height="100" as="geometry" />
        </mxCell>
        <mxCell id="V57s2HXl1916Lw7fVu8e-6" value="Data Processing Pipeline" style="rounded=1;whiteSpace=wrap;html=1;fillColor=#e1d5e7;strokeColor=#9673a6;fontSize=14;fontStyle=1;" parent="1" vertex="1">
          <mxGeometry x="320" y="280" width="520" height="40" as="geometry" />
        </mxCell>
        <mxCell id="V57s2HXl1916Lw7fVu8e-7" value="Extract&#xa;&#xa;• Parse LogMiner Output&#xa;• Filter Changed Records&#xa;• Handle INSERT/UPDATE/DELETE&#xa;• Extract SCN Range" style="rounded=1;whiteSpace=wrap;html=1;fillColor=#d5e8d4;strokeColor=#82b366;fontSize=10;" parent="1" vertex="1">
          <mxGeometry x="280" y="360" width="140" height="80" as="geometry" />
        </mxCell>
        <mxCell id="V57s2HXl1916Lw7fVu8e-8" value="Transform&#xa;&#xa;• Data Cleansing&#xa;• Format Conversion&#xa;• Text Processing&#xa;• Generate Embeddings" style="rounded=1;whiteSpace=wrap;html=1;fillColor=#d5e8d4;strokeColor=#82b366;fontSize=10;" parent="1" vertex="1">
          <mxGeometry x="450" y="360" width="140" height="80" as="geometry" />
        </mxCell>
        <mxCell id="V57s2HXl1916Lw7fVu8e-9" value="Load&#xa;&#xa;• Vector Preparation&#xa;• Redis Commands&#xa;• Bulk Insert/Update&#xa;• Index Management" style="rounded=1;whiteSpace=wrap;html=1;fillColor=#d5e8d4;strokeColor=#82b366;fontSize=10;" parent="1" vertex="1">
          <mxGeometry x="670" y="360" width="140" height="80" as="geometry" />
        </mxCell>
        <mxCell id="V57s2HXl1916Lw7fVu8e-10" value="Vector Processing&#xa;&#xa;• Embedding Generation&#xa;  - OpenAI API&#xa;  - Hugging Face&#xa;  - Local Models&#xa;• Vector Normalization&#xa;• Dimension Validation" style="rounded=1;whiteSpace=wrap;html=1;fillColor=#ffe6cc;strokeColor=#d79b00;fontSize=10;" parent="1" vertex="1">
          <mxGeometry x="880" y="350" width="160" height="100" as="geometry" />
        </mxCell>
        <mxCell id="V57s2HXl1916Lw7fVu8e-11" value="Redis Vector Database&#xa;&#xa;• Vector Index (HNSW/FLAT)&#xa;• Document Storage&#xa;• Metadata Fields&#xa;• Search Capabilities" style="rounded=1;whiteSpace=wrap;html=1;fillColor=#dae8fc;strokeColor=#6c8ebf;fontSize=12;fontStyle=1;" parent="1" vertex="1">
          <mxGeometry x="990" y="110" width="180" height="100" as="geometry" />
        </mxCell>
        <mxCell id="V57s2HXl1916Lw7fVu8e-12" value="RAG System&#xa;&#xa;• Query Processing&#xa;• Vector Search&#xa;• Context Retrieval&#xa;• Response Generation" style="rounded=1;whiteSpace=wrap;html=1;fillColor=#f0f0f0;strokeColor=#666666;fontSize=12;fontStyle=1;" parent="1" vertex="1">
          <mxGeometry x="1270" y="110" width="160" height="100" as="geometry" />
        </mxCell>
        <mxCell id="V57s2HXl1916Lw7fVu8e-13" value="Monitoring &amp; Logging&#xa;&#xa;• Sync Status Tracking&#xa;• Performance Metrics&#xa;• Error Logs&#xa;• Data Quality Checks&#xa;• Alerting System" style="rounded=1;whiteSpace=wrap;html=1;fillColor=#fad9d5;strokeColor=#ae4132;fontSize=11;" parent="1" vertex="1">
          <mxGeometry x="80" y="520" width="180" height="100" as="geometry" />
        </mxCell>
        <mxCell id="V57s2HXl1916Lw7fVu8e-14" value="Configuration Management&#xa;&#xa;• Connection Strings&#xa;• Batch Settings&#xa;• Schema Mappings&#xa;• Vector Dimensions&#xa;• Sync Intervals" style="rounded=1;whiteSpace=wrap;html=1;fillColor=#fad9d5;strokeColor=#ae4132;fontSize=11;" parent="1" vertex="1">
          <mxGeometry x="320" y="520" width="180" height="100" as="geometry" />
        </mxCell>
        <mxCell id="tlgKZXu-Ft4JeJxWwLSO-6" value="" style="edgeStyle=orthogonalEdgeStyle;rounded=0;orthogonalLoop=1;jettySize=auto;html=1;dashed=1;strokeColor=light-dark(#666666, #ededed);entryX=0.613;entryY=0.992;entryDx=0;entryDy=0;entryPerimeter=0;" edge="1" parent="1" source="V57s2HXl1916Lw7fVu8e-15" target="V57s2HXl1916Lw7fVu8e-6">
          <mxGeometry relative="1" as="geometry">
            <Array as="points">
              <mxPoint x="640" y="425" />
            </Array>
          </mxGeometry>
        </mxCell>
        <mxCell id="V57s2HXl1916Lw7fVu8e-15" value="Error Handling&#xa;&#xa;• Dead Letter Queue&#xa;• Retry Mechanisms&#xa;• Data Validation&#xa;• Rollback Procedures&#xa;• Notification System" style="rounded=1;whiteSpace=wrap;html=1;fillColor=#fad9d5;strokeColor=#ae4132;fontSize=11;" parent="1" vertex="1">
          <mxGeometry x="560" y="520" width="180" height="100" as="geometry" />
        </mxCell>
        <mxCell id="V57s2HXl1916Lw7fVu8e-17" value="Checkpoint Management&#xa;&#xa;• SCN Tracking&#xa;• Last Sync Timestamp&#xa;• Batch Progress&#xa;• Recovery Points&#xa;• State Persistence" style="rounded=1;whiteSpace=wrap;html=1;fillColor=#fad9d5;strokeColor=#ae4132;fontSize=11;" parent="1" vertex="1">
          <mxGeometry x="827" y="520" width="180" height="100" as="geometry" />
        </mxCell>
        <mxCell id="V57s2HXl1916Lw7fVu8e-18" style="edgeStyle=orthogonalEdgeStyle;rounded=0;orthogonalLoop=1;jettySize=auto;html=1;strokeWidth=2;strokeColor=#0066cc;" parent="1" source="V57s2HXl1916Lw7fVu8e-3" target="V57s2HXl1916Lw7fVu8e-4" edge="1">
          <mxGeometry relative="1" as="geometry" />
        </mxCell>
        <mxCell id="V57s2HXl1916Lw7fVu8e-19" value="Redo/Archive Logs" style="edgeLabel;html=1;align=center;verticalAlign=middle;resizable=0;points=[];fontSize=10;fontColor=#0066cc;" parent="V57s2HXl1916Lw7fVu8e-18" vertex="1" connectable="0">
          <mxGeometry x="-0.1" y="1" relative="1" as="geometry">
            <mxPoint as="offset" />
          </mxGeometry>
        </mxCell>
        <mxCell id="V57s2HXl1916Lw7fVu8e-20" style="edgeStyle=orthogonalEdgeStyle;rounded=0;orthogonalLoop=1;jettySize=auto;html=1;strokeWidth=2;strokeColor=#0066cc;" parent="1" source="V57s2HXl1916Lw7fVu8e-4" target="V57s2HXl1916Lw7fVu8e-5" edge="1">
          <mxGeometry relative="1" as="geometry" />
        </mxCell>
        <mxCell id="V57s2HXl1916Lw7fVu8e-21" value="Change Data" style="edgeLabel;html=1;align=center;verticalAlign=middle;resizable=0;points=[];fontSize=10;fontColor=#0066cc;" parent="V57s2HXl1916Lw7fVu8e-20" vertex="1" connectable="0">
          <mxGeometry x="-0.1" y="1" relative="1" as="geometry">
            <mxPoint as="offset" />
          </mxGeometry>
        </mxCell>
        <mxCell id="V57s2HXl1916Lw7fVu8e-22" style="edgeStyle=orthogonalEdgeStyle;rounded=0;orthogonalLoop=1;jettySize=auto;html=1;strokeWidth=2;strokeColor=#0066cc;" parent="1" source="V57s2HXl1916Lw7fVu8e-5" target="V57s2HXl1916Lw7fVu8e-6" edge="1">
          <mxGeometry relative="1" as="geometry" />
        </mxCell>
        <mxCell id="V57s2HXl1916Lw7fVu8e-23" value="Batch Processing" style="edgeLabel;html=1;align=center;verticalAlign=middle;resizable=0;points=[];fontSize=10;fontColor=#0066cc;" parent="V57s2HXl1916Lw7fVu8e-22" vertex="1" connectable="0">
          <mxGeometry x="-0.1" y="1" relative="1" as="geometry">
            <mxPoint as="offset" />
          </mxGeometry>
        </mxCell>
        <mxCell id="V57s2HXl1916Lw7fVu8e-24" style="edgeStyle=orthogonalEdgeStyle;rounded=0;orthogonalLoop=1;jettySize=auto;html=1;strokeWidth=2;strokeColor=#009900;" parent="1" source="V57s2HXl1916Lw7fVu8e-6" target="V57s2HXl1916Lw7fVu8e-7" edge="1">
          <mxGeometry relative="1" as="geometry" />
        </mxCell>
        <mxCell id="V57s2HXl1916Lw7fVu8e-25" style="edgeStyle=orthogonalEdgeStyle;rounded=0;orthogonalLoop=1;jettySize=auto;html=1;strokeWidth=2;strokeColor=#009900;" parent="1" source="V57s2HXl1916Lw7fVu8e-7" target="V57s2HXl1916Lw7fVu8e-8" edge="1">
          <mxGeometry relative="1" as="geometry" />
        </mxCell>
        <mxCell id="V57s2HXl1916Lw7fVu8e-26" style="edgeStyle=orthogonalEdgeStyle;rounded=0;orthogonalLoop=1;jettySize=auto;html=1;strokeWidth=2;strokeColor=#009900;" parent="1" source="V57s2HXl1916Lw7fVu8e-8" target="V57s2HXl1916Lw7fVu8e-9" edge="1">
          <mxGeometry relative="1" as="geometry" />
        </mxCell>
        <mxCell id="V57s2HXl1916Lw7fVu8e-27" style="edgeStyle=orthogonalEdgeStyle;rounded=0;orthogonalLoop=1;jettySize=auto;html=1;strokeWidth=2;strokeColor=#009900;" parent="1" source="V57s2HXl1916Lw7fVu8e-8" edge="1">
          <mxGeometry relative="1" as="geometry">
            <mxPoint x="670" y="400" as="targetPoint" />
          </mxGeometry>
        </mxCell>
        <mxCell id="V57s2HXl1916Lw7fVu8e-29" style="edgeStyle=orthogonalEdgeStyle;rounded=0;orthogonalLoop=1;jettySize=auto;html=1;strokeWidth=2;strokeColor=#ff6600;" parent="1" source="V57s2HXl1916Lw7fVu8e-10" target="V57s2HXl1916Lw7fVu8e-11" edge="1">
          <mxGeometry relative="1" as="geometry">
            <Array as="points">
              <mxPoint x="1090" y="400" />
            </Array>
          </mxGeometry>
        </mxCell>
        <mxCell id="V57s2HXl1916Lw7fVu8e-30" value="Vectors &amp; Embeddings" style="edgeLabel;html=1;align=center;verticalAlign=middle;resizable=0;points=[];fontSize=10;fontColor=#ff6600;rotation=-90;" parent="V57s2HXl1916Lw7fVu8e-29" vertex="1" connectable="0">
          <mxGeometry x="-0.1" y="1" relative="1" as="geometry">
            <mxPoint x="-9" y="-42" as="offset" />
          </mxGeometry>
        </mxCell>
        <mxCell id="V57s2HXl1916Lw7fVu8e-33" style="edgeStyle=orthogonalEdgeStyle;rounded=0;orthogonalLoop=1;jettySize=auto;html=1;strokeWidth=2;strokeColor=#0066cc;" parent="1" source="V57s2HXl1916Lw7fVu8e-11" target="V57s2HXl1916Lw7fVu8e-12" edge="1">
          <mxGeometry relative="1" as="geometry" />
        </mxCell>
        <mxCell id="V57s2HXl1916Lw7fVu8e-34" value="Vector Search" style="edgeLabel;html=1;align=center;verticalAlign=middle;resizable=0;points=[];fontSize=10;fontColor=#0066cc;" parent="V57s2HXl1916Lw7fVu8e-33" vertex="1" connectable="0">
          <mxGeometry x="-0.1" y="1" relative="1" as="geometry">
            <mxPoint as="offset" />
          </mxGeometry>
        </mxCell>
        <mxCell id="V57s2HXl1916Lw7fVu8e-35" style="edgeStyle=orthogonalEdgeStyle;rounded=0;orthogonalLoop=1;jettySize=auto;html=1;strokeWidth=1;strokeColor=#666666;dashed=1;" parent="1" edge="1">
          <mxGeometry relative="1" as="geometry">
            <Array as="points">
              <mxPoint x="139.93" y="480" />
              <mxPoint x="639.93" y="480" />
            </Array>
            <mxPoint x="139.9966666666666" y="520" as="sourcePoint" />
            <mxPoint x="640" y="320" as="targetPoint" />
          </mxGeometry>
        </mxCell>
        <mxCell id="V57s2HXl1916Lw7fVu8e-36" style="edgeStyle=orthogonalEdgeStyle;rounded=0;orthogonalLoop=1;jettySize=auto;html=1;strokeWidth=1;strokeColor=#666666;dashed=1;" parent="1" edge="1">
          <mxGeometry relative="1" as="geometry">
            <Array as="points">
              <mxPoint x="420" y="520" />
              <mxPoint x="420" y="480" />
              <mxPoint x="640" y="480" />
            </Array>
            <mxPoint x="420" y="520" as="sourcePoint" />
            <mxPoint x="639.9966666666666" y="320" as="targetPoint" />
          </mxGeometry>
        </mxCell>
        <mxCell id="V57s2HXl1916Lw7fVu8e-39" style="edgeStyle=orthogonalEdgeStyle;rounded=0;orthogonalLoop=1;jettySize=auto;html=1;strokeWidth=1;strokeColor=#666666;dashed=1;" parent="1" source="V57s2HXl1916Lw7fVu8e-17" edge="1">
          <mxGeometry relative="1" as="geometry">
            <Array as="points">
              <mxPoint x="930" y="480" />
              <mxPoint x="640" y="480" />
              <mxPoint x="640" y="321" />
            </Array>
            <mxPoint x="640" y="321" as="targetPoint" />
          </mxGeometry>
        </mxCell>
        <mxCell id="V57s2HXl1916Lw7fVu8e-40" value="Legend" style="text;fontSize=14;fontStyle=1;fillColor=#f0f0f0;strokeColor=#666666;align=center;" parent="1" vertex="1">
          <mxGeometry x="80" y="680" width="100" height="30" as="geometry" />
        </mxCell>
        <mxCell id="V57s2HXl1916Lw7fVu8e-41" value="" style="rounded=0;whiteSpace=wrap;html=1;strokeColor=#0066cc;strokeWidth=2;fillColor=none;" parent="1" vertex="1">
          <mxGeometry x="200" y="685" width="20" height="5" as="geometry" />
        </mxCell>
        <mxCell id="V57s2HXl1916Lw7fVu8e-42" value="Main Data Flow" style="text;fontSize=10;align=left;" parent="1" vertex="1">
          <mxGeometry x="230" y="680" width="100" height="15" as="geometry" />
        </mxCell>
        <mxCell id="V57s2HXl1916Lw7fVu8e-43" value="" style="rounded=0;whiteSpace=wrap;html=1;strokeColor=#009900;strokeWidth=2;fillColor=none;" parent="1" vertex="1">
          <mxGeometry x="200" y="705" width="20" height="5" as="geometry" />
        </mxCell>
        <mxCell id="V57s2HXl1916Lw7fVu8e-44" value="ETL Pipeline" style="text;fontSize=10;align=left;" parent="1" vertex="1">
          <mxGeometry x="230" y="700" width="100" height="15" as="geometry" />
        </mxCell>
        <mxCell id="V57s2HXl1916Lw7fVu8e-45" value="" style="rounded=0;whiteSpace=wrap;html=1;strokeColor=#ff6600;strokeWidth=2;fillColor=none;" parent="1" vertex="1">
          <mxGeometry x="200" y="725" width="20" height="5" as="geometry" />
        </mxCell>
        <mxCell id="V57s2HXl1916Lw7fVu8e-46" value="Vector Processing" style="text;fontSize=10;align=left;" parent="1" vertex="1">
          <mxGeometry x="230" y="720" width="100" height="15" as="geometry" />
        </mxCell>
        <mxCell id="V57s2HXl1916Lw7fVu8e-47" value="" style="rounded=0;whiteSpace=wrap;html=1;strokeColor=#666666;strokeWidth=1;fillColor=none;dashed=1;" parent="1" vertex="1">
          <mxGeometry x="200" y="745" width="20" height="5" as="geometry" />
        </mxCell>
        <mxCell id="V57s2HXl1916Lw7fVu8e-48" value="Support Systems" style="text;fontSize=10;align=left;" parent="1" vertex="1">
          <mxGeometry x="230" y="740" width="100" height="15" as="geometry" />
        </mxCell>
        <mxCell id="V57s2HXl1916Lw7fVu8e-49" value="Batch Sync Process Steps:" style="text;fontSize=12;fontStyle=1;align=left;" parent="1" vertex="1">
          <mxGeometry x="400" y="680" width="200" height="20" as="geometry" />
        </mxCell>
        <mxCell id="V57s2HXl1916Lw7fVu8e-50" value="1. Start LogMiner session with SCN range&#xa;2. Query V$LOGMNR_CONTENTS for changes&#xa;3. Extract and batch process records&#xa;4. Transform data and generate embeddings&#xa;5. Load vectors into Redis with metadata&#xa;6. Update checkpoint and monitoring&#xa;7. Schedule next batch execution" style="text;fontSize=10;align=left;verticalAlign=top;" parent="1" vertex="1">
          <mxGeometry x="400" y="705" width="280" height="100" as="geometry" />
        </mxCell>
        <mxCell id="V57s2HXl1916Lw7fVu8e-51" value="Technical Considerations:" style="text;fontSize=12;fontStyle=1;align=left;" parent="1" vertex="1">
          <mxGeometry x="720" y="680" width="200" height="20" as="geometry" />
        </mxCell>
        <mxCell id="V57s2HXl1916Lw7fVu8e-52" value="• Use Redis Stack for vector capabilities&#xa;• Implement proper SCN-based checkpointing&#xa;• Handle Oracle LogMiner memory limits&#xa;• Use connection pooling for Redis&#xa;• Implement exponential backoff for retries&#xa;• Monitor vector index performance&#xa;• Validate embedding dimensions" style="text;fontSize=10;align=left;verticalAlign=top;" parent="1" vertex="1">
          <mxGeometry x="720" y="705" width="250" height="100" as="geometry" />
        </mxCell>
        <mxCell id="tlgKZXu-Ft4JeJxWwLSO-4" style="edgeStyle=orthogonalEdgeStyle;rounded=0;orthogonalLoop=1;jettySize=auto;html=1;strokeWidth=2;strokeColor=#ff6600;exitX=1;exitY=0.5;exitDx=0;exitDy=0;" edge="1" parent="1" source="V57s2HXl1916Lw7fVu8e-9">
          <mxGeometry relative="1" as="geometry">
            <mxPoint x="850" y="400" as="sourcePoint" />
            <mxPoint x="880" y="400" as="targetPoint" />
          </mxGeometry>
        </mxCell>
        <mxCell id="tlgKZXu-Ft4JeJxWwLSO-5" value="Text Data" style="edgeLabel;html=1;align=center;verticalAlign=middle;resizable=0;points=[];fontSize=10;fontColor=#ff6600;" vertex="1" connectable="0" parent="tlgKZXu-Ft4JeJxWwLSO-4">
          <mxGeometry x="-0.1" y="1" relative="1" as="geometry">
            <mxPoint x="4" y="-9" as="offset" />
          </mxGeometry>
        </mxCell>
      </root>
    </mxGraphModel>
  </diagram>
</mxfile>
